<svg xmlns="http://www.w3.org/2000/svg" viewBox="0 0 1112.19 267.92"><style><![CDATA[.K{stroke:#1d5099}.L{stroke-miterlimit:10}.M{fill:#1d5099}.N{fill:#fff}.O{fill:none}.P{fill:#b0c8ff}.Q{fill:#2668aa}.R{stroke:#2668aa}]]></style><circle cx="993.19" cy="144" r="119" fill="#fafafa"/><path d="M0 132.65l13.4-46.83h18.5l13.34 46.83h-16l-1.95-8.5H16.95l-2.14 8.5zm18.63-19.76h6.9l-3.35-14.6zm48.5 20.9a24.37 24.37 0 0 1-7.17-1.07 18.52 18.52 0 0 1-6.17-3.22 15.29 15.29 0 0 1-4-5.26 17.48 17.48 0 0 1-1.56-7.24h14.54a4.94 4.94 0 0 0 .67 2.72 5 5 0 0 0 1.61 1.6 4.53 4.53 0 0 0 2 .67 5.84 5.84 0 0 0 1.94-.1 3.21 3.21 0 0 0 1.64-1 2.34 2.34 0 0 0 .64-1.64 3.4 3.4 0 0 0-.77-2 8.39 8.39 0 0 0-2.92-2.11 31.33 31.33 0 0 0-7.77-2.54 26.71 26.71 0 0 1-4.39-1.54 15.21 15.21 0 0 1-3.58-2.28 11.29 11.29 0 0 1-3.22-4.49 16.06 16.06 0 0 1-.93-6.5 10.82 10.82 0 0 1 1.8-5.8 14.34 14.34 0 0 1 4.22-4 19.17 19.17 0 0 1 5.69-2.38 26 26 0 0 1 6.16-.77 31.68 31.68 0 0 1 8.85 1.07 16.31 16.31 0 0 1 5.93 3 12.14 12.14 0 0 1 3.45 4.66 18.18 18.18 0 0 1 1.34 5.92H71.56a3.84 3.84 0 0 0-.57-2.14A4.19 4.19 0 0 0 69.55 96a5 5 0 0 0-1.83-.67 9.23 9.23 0 0 0-1.87-.07 5 5 0 0 0-2.42.84 2.34 2.34 0 0 0-1 2.05 2.47 2.47 0 0 0 1.47 2.17 20.08 20.08 0 0 0 5.3 1.64 48.12 48.12 0 0 1 6.83 2 25 25 0 0 1 6 3.25 16.19 16.19 0 0 1 4.25 4.66 11.77 11.77 0 0 1 1.56 6.13 13.81 13.81 0 0 1-6 11.9 19.64 19.64 0 0 1-6.6 2.91 33.3 33.3 0 0 1-8.1.98zm44.48 0a24.35 24.35 0 0 1-7.16-1.07 18.52 18.52 0 0 1-6.17-3.22 15.29 15.29 0 0 1-4-5.26 17.48 17.48 0 0 1-1.57-7.24h14.54a4.94 4.94 0 0 0 .67 2.72 5 5 0 0 0 1.61 1.6 4.53 4.53 0 0 0 2 .67 5.84 5.84 0 0 0 1.94-.1 3.21 3.21 0 0 0 1.64-1 2.34 2.34 0 0 0 .64-1.64 3.4 3.4 0 0 0-.77-2 8.39 8.39 0 0 0-2.92-2.11 31.33 31.33 0 0 0-7.77-2.54 26.71 26.71 0 0 1-4.39-1.54 15.21 15.21 0 0 1-3.58-2.28 11.29 11.29 0 0 1-3.22-4.49 15.89 15.89 0 0 1-.93-6.5 10.82 10.82 0 0 1 1.8-5.8 14.43 14.43 0 0 1 4.24-4 19.34 19.34 0 0 1 5.7-2.38 26 26 0 0 1 6.16-.77 31.68 31.68 0 0 1 8.85 1.07 16.31 16.31 0 0 1 5.93 3 12.14 12.14 0 0 1 3.45 4.66 18.18 18.18 0 0 1 1.34 5.92h-13.6a3.84 3.84 0 0 0-.57-2.14 4.19 4.19 0 0 0-1.44-1.36 5 5 0 0 0-1.88-.64 9.31 9.31 0 0 0-1.88-.07 5 5 0 0 0-2.41.84 2.34 2.34 0 0 0-1 2.05 2.47 2.47 0 0 0 1.47 2.17 20.08 20.08 0 0 0 5.3 1.64 48.12 48.12 0 0 1 6.83 2 25 25 0 0 1 6 3.25 16.19 16.19 0 0 1 4.25 4.66 11.77 11.77 0 0 1 1.61 6.16 13.81 13.81 0 0 1-6 11.9 19.64 19.64 0 0 1-6.6 2.91 33.33 33.33 0 0 1-8.11.92zm26.6-1.15V85.82h33.24v12.53h-17.22v5.42h15.27V115h-15.27v5.3h17.22v12.33zm40.13 0V85.82h15l11 21.57V85.82h15.74v46.83h-15.37L193.8 111.2v21.44zm67.37 1.15a24.35 24.35 0 0 1-7.16-1.07 18.52 18.52 0 0 1-6.17-3.22 15.29 15.29 0 0 1-4-5.26 17.48 17.48 0 0 1-1.54-7.27h14.54a4.94 4.94 0 0 0 .67 2.72 5 5 0 0 0 1.61 1.6 4.53 4.53 0 0 0 2 .67 5.84 5.84 0 0 0 1.94-.1 3.21 3.21 0 0 0 1.64-1 2.34 2.34 0 0 0 .64-1.64 3.4 3.4 0 0 0-.77-2 8.39 8.39 0 0 0-2.92-2.11 31.33 31.33 0 0 0-7.77-2.54 26.71 26.71 0 0 1-4.39-1.54 15.21 15.21 0 0 1-3.58-2.28 11.29 11.29 0 0 1-3.22-4.49 16.05 16.05 0 0 1-.94-6.5 10.91 10.91 0 0 1 1.81-5.8 14.43 14.43 0 0 1 4.24-3.96 19.34 19.34 0 0 1 5.7-2.38 26 26 0 0 1 6.16-.77 31.68 31.68 0 0 1 8.85 1.07 16.31 16.31 0 0 1 5.93 3 12.14 12.14 0 0 1 3.45 4.66 18.18 18.18 0 0 1 1.34 5.92h-13.6a3.84 3.84 0 0 0-.57-2.14 4.19 4.19 0 0 0-1.44-1.36 5 5 0 0 0-1.88-.64 9.33 9.33 0 0 0-1.88-.07 5 5 0 0 0-2.41.84 2.34 2.34 0 0 0-1 2.05 2.47 2.47 0 0 0 1.47 2.17 20.1 20.1 0 0 0 5.25 1.65 47.87 47.87 0 0 1 6.84 2 25 25 0 0 1 6 3.25 16.19 16.19 0 0 1 4.25 4.66 11.77 11.77 0 0 1 1.61 6.16 13.81 13.81 0 0 1-6 11.9 19.64 19.64 0 0 1-6.6 2.91 33.33 33.33 0 0 1-8.1.91zm61.54 0a24.35 24.35 0 0 1-7.16-1.07 18.52 18.52 0 0 1-6.17-3.22 15.29 15.29 0 0 1-4-5.26 17.48 17.48 0 0 1-1.54-7.27h14.54a4.94 4.94 0 0 0 .67 2.72 5 5 0 0 0 1.61 1.6 4.53 4.53 0 0 0 2 .67 5.84 5.84 0 0 0 1.94-.1 3.21 3.21 0 0 0 1.64-1 2.34 2.34 0 0 0 .64-1.64 3.4 3.4 0 0 0-.77-2 8.39 8.39 0 0 0-2.92-2.11 31.33 31.33 0 0 0-7.77-2.54 26.71 26.71 0 0 1-4.39-1.54 15.21 15.21 0 0 1-3.58-2.28 11.29 11.29 0 0 1-3.22-4.49 15.89 15.89 0 0 1-.93-6.5 10.82 10.82 0 0 1 1.8-5.8 14.34 14.34 0 0 1 4.22-3.96 19.17 19.17 0 0 1 5.69-2.38 26 26 0 0 1 6.16-.77 31.68 31.68 0 0 1 8.85 1.07 16.31 16.31 0 0 1 5.93 3 12.14 12.14 0 0 1 3.45 4.66 18.18 18.18 0 0 1 1.34 5.92h-13.57a3.84 3.84 0 0 0-.57-2.14 4.19 4.19 0 0 0-1.43-1.36 5 5 0 0 0-1.88-.64 9.23 9.23 0 0 0-1.87-.07 5 5 0 0 0-2.42.84 2.34 2.34 0 0 0-1 2.05 2.47 2.47 0 0 0 1.47 2.17 20.08 20.08 0 0 0 5.3 1.64 48.12 48.12 0 0 1 6.83 2 25 25 0 0 1 6 3.25 16.19 16.19 0 0 1 4.25 4.66 11.77 11.77 0 0 1 1.61 6.16 13.81 13.81 0 0 1-6 11.9 19.64 19.64 0 0 1-6.6 2.91 33.33 33.33 0 0 1-8.15.92zm26.6-1.15V85.82h15.95v14.4l6.9-14.4h15.88l-9.52 19.1L375 132.65h-17.42l-7.77-21.24v21.24zm45.64 0V85.82h16.15v46.83zm23.63 0V85.82h18a32.79 32.79 0 0 1 4.89.37 20.38 20.38 0 0 1 4.7 1.24 15.34 15.34 0 0 1 3.92 2.27 10.85 10.85 0 0 1 2.82 3.49 13.87 13.87 0 0 1 1.26 3.62 12.83 12.83 0 0 1 .23 3.85 12.32 12.32 0 0 1-.9 3.68 10.73 10.73 0 0 1-2 3.18 10.23 10.23 0 0 1 4.46 4.56 14.34 14.34 0 0 1 1.44 6.37 17.1 17.1 0 0 1-.91 5.66 12.73 12.73 0 0 1-2.68 4.49 12.28 12.28 0 0 1-4.42 3 16.36 16.36 0 0 1-6.13 1.07zm15.14-28.54a13.5 13.5 0 0 0 1.75.23 8.24 8.24 0 0 0 2.27-.1 4.09 4.09 0 0 0 2-.9 3.42 3.42 0 0 0 0-4.49 4.44 4.44 0 0 0-2-.94 8.7 8.7 0 0 0-2.27-.17l-1.75.14zm0 17.08a20.36 20.36 0 0 0 2.68.24 7.28 7.28 0 0 0 2.38-.3 3.6 3.6 0 0 0 1.68-1.11 3.24 3.24 0 0 0 .63-2.11 2.83 2.83 0 0 0-1-2.28 4.74 4.74 0 0 0-2.38-1.07 8.45 8.45 0 0 0-2.21-.1l-1.75.23zm48.45 12.6a24.35 24.35 0 0 1-7.16-1.07 18.52 18.52 0 0 1-6.17-3.22 15.29 15.29 0 0 1-4-5.26 17.48 17.48 0 0 1-1.54-7.27h14.54a4.94 4.94 0 0 0 .67 2.72 5 5 0 0 0 1.61 1.6 4.53 4.53 0 0 0 2 .67 5.84 5.84 0 0 0 1.94-.1 3.21 3.21 0 0 0 1.64-1 2.34 2.34 0 0 0 .64-1.64 3.4 3.4 0 0 0-.77-2 8.39 8.39 0 0 0-2.92-2.11 31.33 31.33 0 0 0-7.77-2.54 26.71 26.71 0 0 1-4.39-1.54 15.21 15.21 0 0 1-3.58-2.28 11.29 11.29 0 0 1-3.22-4.49 15.89 15.89 0 0 1-.93-6.5 10.82 10.82 0 0 1 1.8-5.8 14.43 14.43 0 0 1 4.21-3.96 19.34 19.34 0 0 1 5.7-2.38 26 26 0 0 1 6.16-.77 31.68 31.68 0 0 1 8.85 1.07 16.31 16.31 0 0 1 5.93 3 12.14 12.14 0 0 1 3.45 4.66 18.18 18.18 0 0 1 1.31 5.9h-13.6a3.84 3.84 0 0 0-.57-2.14 4.19 4.19 0 0 0-1.41-1.34 5 5 0 0 0-1.88-.64 9.23 9.23 0 0 0-1.87-.07 5 5 0 0 0-2.42.84 2.34 2.34 0 0 0-1 2.05 2.47 2.47 0 0 0 1.47 2.17 20.08 20.08 0 0 0 5.28 1.65 48.12 48.12 0 0 1 6.83 2 25 25 0 0 1 6 3.25 16.19 16.19 0 0 1 4.25 4.66 11.77 11.77 0 0 1 1.61 6.16 13.81 13.81 0 0 1-6 11.9 19.64 19.64 0 0 1-6.6 2.91 33.33 33.33 0 0 1-8.09.91zm33.9-1.15l-11.9-46.83H505l5.47 29.18 5.43-29.14h16.35l-11.93 46.8zm26.8 0l21.84-46.83h42.2v12.53h-16.6v5.42h14.67V115h-14.67v5.3h16.6v12.33H558.9v-8.5h-11.1l-3.35 8.5zm24.53-19.76h7V95.4zm46.35 19.76V85.82h20.77q8 0 12.6 3.82 4.6 3.82 4.55 10.5a12.58 12.58 0 0 1-1.8 6.57 11.56 11.56 0 0 1-5.5 4.62l9.65 21.3h-17.7l-7.17-19.3v19.3zm15.4-28.47a24.42 24.42 0 0 0 2.48.16 9.1 9.1 0 0 0 2.61-.27 4.4 4.4 0 0 0 2-1.1 3.19 3.19 0 0 0 .84-2.41 3.14 3.14 0 0 0-.77-2.31 3.93 3.93 0 0 0-1.91-1 10.29 10.29 0 0 0-2.58-.24l-2.72.1zm29.76 28.47V85.82h32.57v12.53H659.4v5.3h14.67v11.2H659.4v17.82zm48.04 0v-34.3h-9.12V85.82h34.44v12.53h-9.1v34.3zm44.96 0l13.4-46.83h18.5l13.37 46.83h-16l-2-8.5h-10.3l-2.14 8.5zm18.63-19.76h6.9l-3.35-14.6zm33.83 20.03l9.45-49h8.7l-9.45 49zm40.53.88a24.35 24.35 0 0 1-7.16-1.07 18.52 18.52 0 0 1-6.17-3.22 15.29 15.29 0 0 1-4-5.26 17.48 17.48 0 0 1-1.54-7.27h14.54a4.94 4.94 0 0 0 .67 2.72 5 5 0 0 0 1.61 1.6 4.53 4.53 0 0 0 2 .67 5.84 5.84 0 0 0 1.94-.1 3.21 3.21 0 0 0 1.64-1 2.34 2.34 0 0 0 .64-1.64 3.4 3.4 0 0 0-.77-2 8.39 8.39 0 0 0-2.92-2.11 31.33 31.33 0 0 0-7.77-2.54 26.71 26.71 0 0 1-4.39-1.54 15.21 15.21 0 0 1-3.58-2.28 11.29 11.29 0 0 1-3.22-4.49 16.05 16.05 0 0 1-.94-6.5 10.91 10.91 0 0 1 1.81-5.8 14.43 14.43 0 0 1 4.21-3.96 19.34 19.34 0 0 1 5.7-2.38 26 26 0 0 1 6.16-.77 31.68 31.68 0 0 1 8.81 1.03 16.31 16.31 0 0 1 5.93 3 12.14 12.14 0 0 1 3.45 4.66 18.18 18.18 0 0 1 1.34 5.92h-13.6a3.84 3.84 0 0 0-.57-2.14 4.19 4.19 0 0 0-1.4-1.32 5 5 0 0 0-1.88-.64 9.33 9.33 0 0 0-1.88-.07 5 5 0 0 0-2.41.84 2.34 2.34 0 0 0-1 2.05 2.47 2.47 0 0 0 1.47 2.17 20.08 20.08 0 0 0 5.3 1.64 48.51 48.51 0 0 1 6.83 2 25 25 0 0 1 6 3.25 16.19 16.19 0 0 1 4.25 4.66 11.77 11.77 0 0 1 1.61 6.16 13.81 13.81 0 0 1-6 11.9 19.64 19.64 0 0 1-6.6 2.91 33.33 33.33 0 0 1-8.11.92z" class="M"/><g fill="#ce3233"><circle cx="990.69" cy="151.5" r="79.5" stroke="#ce3233" stroke-width="4"/><path d="M1032.2 0h7v86h-7z"/></g><path d="M1039.2 91.07v120.86a77.46 77.46 0 0 0 0-120.86z" class="N"/><g class="K L"><path d="M898.1 203a108.4 108.4 0 0 1-14.51-1s-1.48-.14-4.5-3.08a11.22 11.22 0 0 1-3.23-7.49l-.1-1a110.36 110.36 0 0 0 13.81 2.9 17.26 17.26 0 0 1 4.73 3.14c1.76 1.8 1.7 1.82 3.82 6.53z" class="O"/><path d="M894.32 202l2.87.08c-.06-.05-1.7-6.2-7.93-8.4-.82 0-1.64.06-2.46.07.06.06 5.62.96 7.52 8.26z" class="P"/></g><path d="M894.06 202.45q-3.6-.15-7.26-.54c.07 0-6.23-1.6-7.7-10.16 2.67.67 5.33 1.2 8 1.62.03.13 7.25 4.07 6.97 9.08z" class="N"/><g class="L"><path d="M886.48 201.8l-1.88-.16c.1.06-7.58-1-8.44-10.64l2.93.74c-.07-.01 1.94 8.05 7.4 10.06z" class="K M"/><path d="M889.72 201.57l-1.87-.1c.1.06-7.53-.82-8.4-10.2l2.92.66c-.05-.02 1.96 7.82 7.35 9.65z" class="Q R"/><g class="K"><path d="M904.24 211.5a111.67 111.67 0 0 1-14.4.6c0 0-1.48 0-4.7-2.5a10.55 10.55 0 0 1-3.79-6.92l-.2-1a109.23 109.23 0 0 0 13.86 1.31 16.58 16.58 0 0 1 4.92 2.55c1.9 1.6 1.78 1.62 4.3 5.96z" class="O"/><path d="M900.44 211l2.84-.23c-.07 0-2.18-5.9-8.52-7.34l-2.42.34c.07.02 5.63.23 8.1 7.23z" class="P"/></g></g><path d="M900.2 211.44l-7.2.26c.07 0-6.28-.9-8.43-9 2.7.33 5.38.55 8 .68.06.08 7.5 3.13 7.64 8.06z" class="N"/><g class="L"><path d="M892.72 211.63l-1.87.05c.1.06-7.57-.17-9.2-9.42 1 .15 2 .28 3 .4-.15-.01 2.47 7.6 8.06 8.97z" class="K M"/><path d="M895.87 211.05l-1.85.1c.1 0-7.5 0-9.1-9l2.93.32c-.07-.03 2.54 7.37 8.03 8.58z" class="Q R"/><g class="K"><path d="M911.9 220.16a116.3 116.3 0 0 1-14.14 2.28c0 0-1.46.2-4.87-1.88a10 10 0 0 1-4.37-6.28l-.28-.9a115.23 115.23 0 0 0 13.78-.44 15.67 15.67 0 0 1 5.08 1.89c2 1.34 1.94 1.37 4.8 5.34z" class="O"/><path d="M908.1 220.1l2.78-.55a12.06 12.06 0 0 0-9.08-6.18l-2.35.63c.06 0 5.57-.42 8.65 6.1z" class="P"/></g></g><path d="M907.93 220.56l-7.1 1.1c.08 0-6.27-.13-9.13-7.8 2.68 0 5.34-.1 8-.3.01.1 7.62 2.2 8.22 7z" class="N"/><g class="L"><path d="M900.52 221.63l-1.84.28c.1 0-7.48.72-9.92-8.08h3c-.12.02 3.16 7.1 8.76 7.8z" class="K M"/><path d="M903.6 220.7l-1.8.3c.1.05-7.4.9-9.8-7.7 1 0 2 0 2.92-.05-.07-.01 3.17 6.9 8.7 7.43z" class="Q R"/><g class="K"><path d="M919.32 227a119.26 119.26 0 0 1-13.79 3.69s-1.43.34-5-1.35a9.49 9.49 0 0 1-4.83-5.7l-.35-.87a116.82 116.82 0 0 0 13.57-1.88 15.31 15.31 0 0 1 5.18 1.34c2.13 1.1 2.06 1.12 5.22 4.77z" class="O"/><path d="M915.56 227.3l2.7-.83a11.64 11.64 0 0 0-9.49-5.15l-2.27.86c.07.01 5.46-1 9.06 5.12z" class="P"/></g></g><path d="M915.42 227.78l-6.92 1.8c.08 0-6.2.5-9.67-6.7a123.21 123.21 0 0 0 7.84-1.14c.05.1 7.76 1.35 8.75 6.05z" class="N"/><g class="L"><path d="M908.18 229.6l-1.8.46c.1 0-7.34 1.47-10.47-6.9 1-.08 1.94-.18 2.9-.28-.1-.01 3.76 6.6 9.35 6.72z" class="K M"/><path d="M911.16 228.34l-1.77.5c.1 0-7.24 1.62-10.33-6.54q1.45-.17 2.88-.36c-.07 0 3.7 6.43 9.22 6.4z" class="Q R"/><g class="K"><path d="M927.23 233a119.53 119.53 0 0 1-13.34 5s-1.38.47-5-.84a9.2 9.2 0 0 1-5.25-5.13l-.42-.82a120.41 120.41 0 0 0 13.24-3.21 14.75 14.75 0 0 1 5.23.8c2.17.88 2.1.9 5.54 4.2z" class="O"/><path d="M923.53 233.7l2.6-1.1a11.34 11.34 0 0 0-9.82-4.15l-2.18 1.08c.07.01 5.32-1.53 9.4 4.16z" class="P"/></g></g><path d="M923.43 234.16l-6.7 2.47c.08 0-6.1 1.1-10.13-5.65q3.9-.84 7.67-1.92c.05.1 7.77.55 9.15 5.1z" class="N"/><g class="L"><path d="M916.42 236.67l-1.73.63c.1 0-7.14 2.17-10.93-5.74l2.85-.58c-.07.02 4.27 6.13 9.8 5.7z" class="K M"/><path d="M919.27 235.14q-.85.35-1.7.66c.1 0-7 2.32-10.76-5.4l2.8-.64c-.07 0 4.2 5.96 9.66 5.4z" class="Q R"/><g class="K"><path d="M935.58 238.2a123.68 123.68 0 0 1-12.79 6.22c0 0-1.33.6-5.05-.33a8.93 8.93 0 0 1-5.63-4.56l-.5-.76a121.61 121.61 0 0 0 12.86-4.5 15 15 0 0 1 5.25.28c2.22.68 2.17.72 5.85 3.65z" class="O"/><path d="M931.97 239.23q1.26-.64 2.5-1.32a11.14 11.14 0 0 0-10.08-3.17l-2.06 1.28c.07-.02 5.13-2.02 9.65 3.2z" class="P"/></g></g><path d="M931.9 239.72l-6.4 3.07c.07 0-6 1.7-10.5-4.6 2.52-.8 5-1.7 7.42-2.65.07.1 7.75-.2 9.5 4.18z" class="N"/><g class="L"><path d="M925.18 242.86l-1.66.8c.1 0-6.9 2.84-11.3-4.6l2.78-.86c-.07.01 4.73 5.64 10.2 4.67z" class="K M"/><path d="M927.87 241.08l-1.64.82c.1 0-6.76 3-11.1-4.3l2.73-.9c-.07 0 4.67 5.47 10.02 4.4z" class="Q R"/><g class="K"><path d="M945.4 243.08a123.74 123.74 0 0 1-12.06 7.5c0 0-1.25.73-5 .2a8.81 8.81 0 0 1-6-3.9l-.55-.7a121.76 121.76 0 0 0 12.27-5.83 14.83 14.83 0 0 1 5.23-.27c2.24.44 2.2.48 6.1 3z" class="O"/><path d="M941.94 244.48l2.33-1.57a11 11 0 0 0-10.27-2.09l-1.93 1.5c.07 0 4.88-2.58 9.87 2.17z" class="P"/></g></g><path d="M941.92 245q-2.94 1.94-6.05 3.72c.08 0-5.74 2.3-10.83-3.44 2.4-1.07 4.78-2.2 7.08-3.42.08.04 7.6-1.07 9.8 3.14z" class="N"/><g class="L"><path d="M935.57 248.8l-1.58 1c.1 0-6.54 3.52-11.6-3.35l2.66-1.15c-.07-.04 5.22 5.02 10.53 3.5z" class="K M"/><path d="M938.06 246.74l-1.55 1c.1 0-6.4 3.63-11.4-3.08l2.62-1.2c-.07-.01 5.13 4.9 10.33 3.28z" class="Q R"/><g class="K"><path d="M954.46 246.56a125.15 125.15 0 0 1-11.32 8.54c0 0-1.18.84-5 .65a8.68 8.68 0 0 1-6.28-3.32l-.6-.65a129.41 129.41 0 0 0 11.68-6.92 14.58 14.58 0 0 1 5.16-.75c2.3.23 2.26.28 6.37 2.45z" class="O"/><path d="M951.14 248.26l2.18-1.77a10.85 10.85 0 0 0-10.37-1.15l-1.78 1.65c.07.01 4.62-3 9.97 1.27z" class="P"/></g></g><path d="M951.17 248.74q-2.76 2.2-5.7 4.24c.08 0-5.5 2.8-11-2.43 2.3-1.3 4.55-2.64 6.73-4 .05.03 7.5-1.77 9.96 2.2z" class="N"/><g class="L"><path d="M945.2 253.1l-1.48 1.1c.1 0-6.18 4.08-11.8-2.27l2.54-1.4c-.07.02 5.6 4.55 10.74 2.56z" class="K M"/><path d="M947.5 250.85l-1.45 1.15c.1 0-6.05 4.18-11.57-2l2.5-1.43c-.07-.04 5.5 4.36 10.53 2.28z" class="Q R"/><g class="K"><path d="M964.94 249.5a129.47 129.47 0 0 1-10.4 9.61s-1.1.95-4.86 1.14a8.63 8.63 0 0 1-6.55-2.66 7.32 7.32 0 0 1-.66-.59 131.27 131.27 0 0 0 10.89-8 14.45 14.45 0 0 1 5-1.26c2.36-.04 2.28.01 6.58 1.76z" class="O"/><path d="M961.8 251.5l2-2a10.77 10.77 0 0 0-10.4-.11l-1.6 1.82c.06.01 4.27-3.43 10 .3z" class="P"/></g></g><path d="M961.9 252q-2.53 2.44-5.23 4.78c.07 0-5.2 3.3-11.18-1.3q3.24-2.26 6.28-4.7c.08.05 7.26-2.47 10.13 1.23z" class="N"/><g class="L"><path d="M956.38 256.93l-1.36 1.23c.1 0-5.74 4.67-11.92-1.07.8-.53 1.6-1.08 2.38-1.63-.07.02 6 3.95 10.9 1.47z" class="K M"/><path d="M958.43 254.45l-1.32 1.26c.1 0-5.6 4.75-11.67-.85l2.33-1.67c-.05.02 5.9 3.8 10.66 1.26z" class="Q R"/><g class="K"><path d="M974.43 251.25a130.8 130.8 0 0 1-9.5 10.46c0 0-1 1-4.74 1.56a8.53 8.53 0 0 1-6.73-2.08l-.7-.52a128.94 128.94 0 0 0 10.13-9 14.49 14.49 0 0 1 4.9-1.69c2.27-.16 2.23-.1 6.65 1.27z" class="O"/><path d="M971.5 253.52l1.8-2.13a10.71 10.71 0 0 0-10.34.78l-1.44 2c.07-.07 3.95-3.87 9.97-.65z" class="P"/></g></g><path d="M971.6 254l-4.78 5.2c.07 0-4.87 3.74-11.22-.33 2-1.7 4-3.44 5.83-5.23.1.05 7-3.1 10.17.35z" class="N"/><g class="L"><path d="M966.57 259.38l-1.25 1.35c.1 0-5.3 5.14-11.94 0l2.23-1.84c-.07.01 6.3 3.4 10.96.5z" class="K M"/><path d="M968.4 256.74l-1.2 1.36c.1 0-5.15 5.22-11.67.17l2.17-1.86c-.07.02 6.18 3.3 10.7.33z" class="Q R"/><g class="K"><path d="M985.23 252.25a130.69 130.69 0 0 1-8.42 11.32c0 0-.9 1.13-4.55 2a8.54 8.54 0 0 1-6.89-1.42l-.76-.44a128.35 128.35 0 0 0 9.18-9.91 14.59 14.59 0 0 1 4.71-2.15c2.22-.4 2.22-.35 6.73.6z" class="O"/><path d="M982.53 254.8l1.6-2.3a10.64 10.64 0 0 0-10.2 1.76l-1.24 2.08c.04-.03 3.56-4.18 9.85-1.55z" class="P"/></g></g><path d="M982.72 255.25l-4.25 5.64c.08 0-4.47 4.18-11.18.75q2.76-2.83 5.3-5.77c.07.05 6.62-3.74 10.14-.62z" class="N"/><g class="L"><path d="M978.2 261.1l-1.1 1.46c.1 0-4.76 5.63-11.85 1.13l2-2s6.62 2.74 10.96-.6z" class="K M"/><path d="M979.77 258.3l-1 1.47c.1 0-4.6 5.68-11.57 1.3l2-2.07c-.16.02 6.36 2.7 10.57-.7z" class="Q R"/><g class="K"><path d="M994.87 252.27a130.59 130.59 0 0 1-7.4 12c0 0-.8 1.2-4.36 2.38a8.52 8.52 0 0 1-7-.83l-.8-.38a129 129 0 0 0 8.27-10.65 14.41 14.41 0 0 1 4.5-2.54c2.22-.6 2.18-.55 6.78.02z" class="O"/><path d="M992.4 255l1.38-2.42a10.6 10.6 0 0 0-10 2.62l-1 2.18s3.1-4.44 9.62-2.38z" class="P"/></g></g><path d="M992.6 255.47q-1.77 3-3.74 6c.07 0-4.1 4.54-11.06 1.7 1.66-2 3.25-4.1 4.75-6.2.1.03 6.3-4.3 10.05-1.5z" class="N"/><g class="L"><path d="M988.65 261.68l-1 1.54c.1 0-4.25 6-11.7 2.13l1.84-2.2c-.07.04 6.82 2.2 10.86-1.46z" class="K M"/><path d="M989.95 258.75q-.45.78-.93 1.56c.1 0-4.1 6-11.4 2.26l1.77-2.23c-.06.04 6.67 2.13 10.56-1.6z" class="Q R"/><g class="K"><path d="M1004.48 251.48a128.48 128.48 0 0 1-6.33 12.57c0 0-.7 1.27-4.14 2.74a8.59 8.59 0 0 1-7-.24l-.82-.3a129.07 129.07 0 0 0 7.31-11.31 14.34 14.34 0 0 1 4.22-2.93c2.16-.76 2.13-.7 6.76-.52z" class="O"/><path d="M1002.27 254.44l1.17-2.53a10.64 10.64 0 0 0-9.75 3.46l-.86 2.25c.06-.03 2.77-4.72 9.44-3.18z" class="P"/></g></g><path d="M1002.5 254.86q-1.5 3.17-3.2 6.27c.07 0-3.68 4.88-10.87 2.62a121.11 121.11 0 0 0 4.19-6.57c.1.03 5.9-4.8 9.9-2.32z" class="N"/><g class="L"><path d="M999.1 261.38l-.84 1.62c.1 0-3.72 6.34-11.47 3.1l1.64-2.35c-.06.04 6.97 1.63 10.67-2.37z" class="K M"/><path d="M1000.15 258.35l-.8 1.63c.1 0-3.56 6.37-11.16 3.22l1.57-2.37c-.04.04 6.82 1.56 10.4-2.48z" class="Q R"/><g class="K"><path d="M1014 249.88a131.19 131.19 0 0 1-5.23 13.06c0 0-.58 1.32-3.9 3.08a8.59 8.59 0 0 1-7 .36l-.84-.25a133.5 133.5 0 0 0 6.3-11.88 14.47 14.47 0 0 1 4-3.26c2.04-1 2.02-.9 6.66-1.1z" class="O"/><path d="M1012.05 253l.95-2.62a10.62 10.62 0 0 0-9.43 4.27l-.65 2.32c.05-.03 2.34-4.92 9.13-3.97z" class="P"/></g></g><path d="M1012.33 253.42q-1.23 3.27-2.66 6.52c.07 0-3.25 5.16-10.6 3.52a129.6 129.6 0 0 0 3.61-6.89c.1.01 5.46-5.3 9.66-3.15z" class="N"/><g class="L"><path d="M1009.5 260.2q-.33.84-.7 1.68c.1-.05-3.16 6.64-11.17 4.07.5-.83 1-1.66 1.43-2.5-.05.05 7.1 1.04 10.43-3.26z" class="K M"/><path d="M1010.27 257.1l-.65 1.7c.1 0-3 6.65-10.85 4.15l1.37-2.5c-.06.04 6.93.97 10.13-3.35z" class="Q R"/><g class="K"><path d="M1024.53 247.1a129.64 129.64 0 0 1-3.94 13.51c0 0-.45 1.37-3.57 3.44a8.59 8.59 0 0 1-7 1l-.87-.16a123.59 123.59 0 0 0 5.12-12.44 14.51 14.51 0 0 1 3.67-3.62c2-1.12 1.98-1.06 6.6-1.73z" class="O"/><path d="M1022.88 250.42q.36-1.35.7-2.7a10.67 10.67 0 0 0-9 5.16l-.43 2.37c.07-.05 1.88-5.13 8.74-4.83z" class="P"/></g></g><path d="M1023.2 250.8q-.9 3.38-2 6.75c.06-.05-2.74 5.46-10.24 4.53 1.06-2.4 2-4.8 2.93-7.22.1.01 4.9-5.78 9.3-4.06z" class="N"/><g class="L"><path d="M1021.03 257.8l-.52 1.75c.1-.06-2.5 6.9-10.74 5.1l1.18-2.6c-.05.05 7.17.35 10.08-4.26z" class="K M"/><path d="M1021.5 254.65l-.48 1.74c.1-.05-2.35 6.9-10.42 5.18l1.12-2.62c-.01.05 7 .3 9.78-4.3z" class="Q R"/><g class="K"><path d="M1033.65 243.77a130 130 0 0 1-2.77 13.82c0 0-.33 1.4-3.27 3.74a8.61 8.61 0 0 1-6.89 1.67l-.87-.1a131.32 131.32 0 0 0 4-12.83 14.2 14.2 0 0 1 3.35-3.93c1.9-1.37 1.9-1.3 6.45-2.38z" class="O"/><path d="M1032.3 247.22l.45-2.75a10.69 10.69 0 0 0-8.53 5.93l-.22 2.4c.05-.05 1.4-5.27 8.3-5.58z" class="P"/></g></g><path d="M1032.64 247.56l-1.43 6.9c.07-.05-2.26 5.68-9.83 5.4q1.27-3.7 2.3-7.44c.1 0 4.42-6.2 8.97-4.87z" class="N"/><g class="L"><path d="M1031.08 254.76l-.37 1.78c.1-.06-1.9 7.1-10.28 6l1-2.7c-.1.1 7.14-.23 9.65-5.08z" class="K M"/><path d="M1031.28 251.56l-.33 1.78c.1-.06-1.74 7.1-10 6.06l.9-2.7c0 .06 7.07-.3 9.44-5.14z" class="Q R"/><g class="K"><path d="M1042.48 239.62a129 129 0 0 1-1.58 14c0 0-.2 1.43-2.94 4a8.59 8.59 0 0 1-6.72 2.22h-.9a125.78 125.78 0 0 0 2.92-13.14 14.12 14.12 0 0 1 3-4.22c1.75-1.48 1.75-1.37 6.2-2.86z" class="O"/><path d="M1041.42 243.2q.12-1.4.2-2.8a10.8 10.8 0 0 0-8 6.69v2.4c.02-.06.92-5.38 7.8-6.3z" class="P"/></g></g><path d="M1041.8 243.5l-.82 7c0-.06-1.77 5.87-9.36 6.26.63-2.54 1.17-5.08 1.64-7.62.1.01 3.9-6.54 8.54-5.64z" class="N"/><g class="L"><path d="M1040.86 250.82l-.22 1.8c.08-.07-1.3 7.27-9.75 6.92l.72-2.77c-.04.06 7.16-.9 9.25-5.96z" class="K M"/><path d="M1040.8 247.6l-.18 1.8c.08-.08-1.13 7.24-9.43 6.92q.35-1.38.66-2.76c.3-1.38 7-.92 8.95-5.97z" class="Q R"/><g class="K"><path d="M1050.95 234.66a128.81 128.81 0 0 1-.36 14.17c0 0-.08 1.45-2.6 4.28a8.74 8.74 0 0 1-6.54 2.83l-.88.07a131 131 0 0 0 1.77-13.38 14.67 14.67 0 0 1 2.65-4.49c1.62-1.65 1.62-1.57 5.95-3.48z" class="O"/><path d="M1050.2 238.32v-2.8a11 11 0 0 0-7.45 7.41 102.04 102.04 0 0 1 .2 2.41c.02-.06.46-5.45 7.25-7.02z" class="P"/></g></g><path d="M1050.6 238.6l-.22 7.1c.06-.07-1.26 6-8.82 7.1a139.24 139.24 0 0 0 1-7.75c.1-.04 3.3-6.9 8.04-6.44z" class="N"/><g class="L"><path d="M1050.3 246l-.06 1.84c.08-.08-.66 7.38-9.15 7.8l.47-2.83c-.03.05 7.08-1.55 8.74-6.8z" class="K M"/><path d="M1049.95 242.8v1.82c.07-.08-.5 7.34-8.83 7.77l.4-2.82c-.05.06 6.9-1.57 8.42-6.77z" class="Q R"/><g class="K"><path d="M1060 228.1a130.15 130.15 0 0 1 1 14.22c0 0 .06 1.46-2.18 4.55a8.88 8.88 0 0 1-6.26 3.51l-.88.16a133 133 0 0 0 .48-13.54 14.52 14.52 0 0 1 2.21-4.77c1.47-1.82 1.48-1.74 5.63-4.13z" class="O"/><path d="M1059.6 231.85l-.3-2.8a11.2 11.2 0 0 0-6.73 8.21l.42 2.4c.04-.07-.04-5.5 6.6-7.8z" class="P"/></g></g><path d="M1060.02 232.08l.47 7.12c0-.07-.7 6.17-8.14 8q.24-3.94.23-7.84c.14 0 2.65-7.22 7.44-7.28z" class="N"/><g class="L"><path d="M1060.44 239.5c0 .62.08 1.23.1 1.84.07-.1.05 7.46-8.4 8.75l.2-2.88c-.03.07 6.93-2.22 8.1-7.7z" class="K M"/><path d="M1059.77 236.36l.16 1.82c.07-.1.2 7.4-8.08 8.7l.14-2.86c-.03.07 6.73-2.27 7.78-7.66z" class="Q R"/><g class="K"><path d="M1067.5 221.4a130.26 130.26 0 0 1 2.22 14.16c0 0 .2 1.46-1.8 4.78a9 9 0 0 1-6 4.11l-.87.24a131.15 131.15 0 0 0-.68-13.59 15.17 15.17 0 0 1 1.81-5c1.34-1.97 1.35-1.9 5.3-4.7z" class="O"/><path d="M1067.43 225.2l-.53-2.78c0 .07-5.5 2.62-6 8.9l.64 2.35c-.02-.07-.57-5.5 5.9-8.47z" class="P"/></g></g><path d="M1067.88 225.4q.63 3.5 1.08 7.1c0-.08-.16 6.27-7.47 8.83-.06-2.64-.2-5.27-.43-7.87.1-.03 2.03-7.5 6.82-8.05z" class="N"/><g class="L"><path d="M1068.93 232.8l.28 1.84c0-.1.68 7.47-7.67 9.57v-2.9c-.07.08 6.7-2.94 7.4-8.5z" class="K M"/><path d="M1068 229.7l.3 1.82c.06-.1.84 7.4-7.35 9.5 0-1-.06-1.9-.1-2.87-.03.07 6.58-2.92 7.14-8.44z" class="Q R"/><g class="K"><path d="M1074.5 213.9a131.69 131.69 0 0 1 3.43 14c0 0 .3 1.45-1.4 5a9.18 9.18 0 0 1-5.63 4.72l-.84.33a132 132 0 0 0-1.85-13.57 15.67 15.67 0 0 1 1.39-5.2c1.13-2.12 1.13-2.03 4.9-5.28z" class="O"/><path d="M1074.72 217.74l-.77-2.75c0 .07-5.3 3.2-5.3 9.57l.84 2.3c.03-.08-.98-5.45 5.24-9.12z" class="P"/></g></g><path d="M1075.2 217.88l1.67 7c0-.08.38 6.33-6.72 9.62a137.3 137.3 0 0 0-1.11-7.85c.1-.02 1.4-7.72 6.16-8.77z" class="N"/><g class="L"><path d="M1075.72 222.2l.46 1.8c0-.1 1.47 7.37-6.55 10.28l-.35-2.87c-.06.07 6.3-3.6 6.44-9.2z" class="Q R"/><g class="K"><path d="M1080.85 205.57a133.6 133.6 0 0 1 4.62 13.79c0 0 .43 1.43-1 5.17a9.45 9.45 0 0 1-5.25 5.33l-.82.42a134.13 134.13 0 0 0-3-13.46 15.45 15.45 0 0 1 1-5.38c.95-2.27.98-2.18 4.45-5.87z" class="O"/><path d="M1081.4 209.43l-1-2.7c0 .08-5 3.83-4.5 10.23a54.19 54.19 0 0 1 1 2.22c.05-.1-1.42-5.37 4.5-9.75z" class="P"/></g></g><path d="M1081.9 209.52l2.27 6.9c0-.1.9 6.35-5.93 10.4q-.78-3.94-1.78-7.78c.1-.04.74-7.94 5.44-9.52z" class="N"/><path d="M1084.2 216.76l.6 1.8c0-.12 2 7.37-6 11.16a115.31 115.31 0 0 0-.54-2.9c-.02.1 6.2-4.3 5.95-10.06zm-7.32 8.47l.43 1.82c.05-.1 1.32 7.44-6.87 10.37l-.3-2.9c-.02.08 6.5-3.62 6.73-9.3z" class="K L M"/><path d="M1082.72 213.84l.6 1.76c0-.12 2.1 7.28-5.7 11q-.3-1.42-.6-2.85c.02.12 6.1-4.24 5.7-9.9z" class="L Q R"/><g class="K L"><path d="M1087.2 195.23a134.87 134.87 0 0 1 5.93 13.43c0 0 .57 1.4-.48 5.35a9.93 9.93 0 0 1-4.76 6l-.78.52a133.36 133.36 0 0 0-4.29-13.23 16.58 16.58 0 0 1 .44-5.57c.77-2.4.8-2.3 3.94-6.5z" class="O"/><path d="M1088.13 199.08l-1.27-2.6c0 .08-4.7 4.52-3.56 10.93l1.25 2.12c.01-.1-1.97-5.25 3.58-10.44z" class="P"/></g><path d="M1088.62 199.12q1.55 3.3 2.94 6.73c0-.1 1.5 6.33-5 11.24q-1.15-3.9-2.53-7.65c.12-.06.03-8.13 4.6-10.32z" class="N"/><g class="L"><path d="M1091.62 206.18l.75 1.74c0-.13 2.65 7.24-5 12-.26-1-.53-1.9-.8-2.84.02.1 5.86-5.08 5.06-10.9z" class="K M"/><path d="M1089.88 203.4l.8 1.7c0-.12 2.78 7.14-4.68 11.86l-.87-2.8c-.01.1 5.67-5.05 4.76-10.77z" class="Q R"/><g class="K"><path d="M1092.05 185.17a136.09 136.09 0 0 1 7.08 13c0 0 .68 1.37-.05 5.5a10.46 10.46 0 0 1-4.26 6.63l-.75.62a136.46 136.46 0 0 0-5.41-13 16.59 16.59 0 0 1 0-5.71c.54-2.5.6-2.4 3.4-7.04z" class="O"/><path d="M1093.3 189l-1.48-2.53c0 .1-4.34 5.16-2.67 11.54.48.67 1 1.34 1.43 2 0-.08-2.42-5.08 2.72-11z" class="P"/></g></g><path d="M1093.8 189l3.5 6.53c0-.1 2 6.3-4 12q-1.48-3.83-3.17-7.48c.03-.12-.74-8.3 3.66-11.05z" class="N"/><g class="L"><path d="M1097.4 195.83l.9 1.68c0-.13 3.27 7.1-4 12.76l-1.06-2.8c.02.1 5.48-5.82 4.16-11.65z" class="K M"/><path d="M1095.42 193.2l.93 1.66c0-.14 3.4 7-3.7 12.57l-1.1-2.75c0 .1 5.27-5.75 3.88-11.48z" class="Q R"/><g class="K"><path d="M878.17 194.65l-.73 1.6s-3 6.1-8.6 3l1.2-2.44s5.13 1.6 8.15-2.16z" class="M"/><path d="M893.1 192.34l-11.64 7s-1.16.7-4.07.46a5 5 0 0 1-4.18-3l-.35-.58 11.06-6.62a10.52 10.52 0 0 1 4.53-.34c1.86.4 1.86.4 4.65 3.08z" class="O"/><path d="M889.83 193.5l2.33-1.4a7 7 0 0 0-8.37-2.1l-1.86 1.5a5.8 5.8 0 0 1 7.9 1.99z" class="P"/></g></g><path d="M889.72 194l-5.82 3.48a6.78 6.78 0 0 1-8.26-2.57l6.4-3.83s6.74-1.3 7.67 2.92z" class="N"/><g class="L"><path d="M883.63 197.54l-1.48 1s-5.82 3.48-8.83-2.23l2.32-1.4s3.42 4.08 8 2.62z" class="K M"/><path d="M886.1 195.58l-1.48.94s-5.82 3.48-8.84-2.22l2.33-1.4s3.4 4.17 8 2.68z" class="Q R"/><g class="K"><path d="M1106.35 183.68l-.12 13.56s0 1.36-1.72 3.72a5 5 0 0 1-4.77 2h-.68l.12-12.88a10.34 10.34 0 0 1 2.07-4.05c1.37-1.36 1.37-1.36 5.1-2.35z" class="O"/><path d="M1105.65 187.07v-2.72a7 7 0 0 0-6.16 6.05l.32 2.38a5.81 5.81 0 0 1 5.84-5.71z" class="P"/></g></g><path d="M1105.98 187.4l-.06 6.78a6.75 6.75 0 0 1-6.49 5.71l.07-7.46s2.43-6.44 6.48-5.03z" class="N"/><g class="L"><path d="M1105.87 194.47v1.75s-.06 6.78-6.5 6.4v-2.7s5.34-.75 6.5-5.43z" class="K M"/><path d="M1105.48 191.33v1.75s-.06 6.8-6.5 6.4v-2.7s5.4-.76 6.5-5.43z" class="Q R"/><g class="K"><path d="M1098.63 184.12l3.47 13.1s.35 1.3-.68 4a5 5 0 0 1-4.07 3.18l-.65.17-3.3-12.45a10.51 10.51 0 0 1 .92-4.45c.97-1.62.97-1.62 4.3-3.56z" class="O"/><path d="M1098.84 187.57l-.7-2.62a7 7 0 0 0-4.34 7.46l.94 2.2a5.81 5.81 0 0 1 4.09-7.05z" class="P"/></g></g><path d="M1099.26 187.8l1.73 6.56a6.74 6.74 0 0 1-4.75 7.22l-1.9-7.2s.65-6.84 4.93-6.57z" class="N"/><g class="L"><path d="M1101.02 194.65l.5 1.68s1.73 6.56-4.58 7.88l-.7-2.62s4.95-2.13 4.78-6.94z" class="K M"/><path d="M1099.8 191.73l.5 1.68s1.74 6.55-4.58 7.88l-.7-2.63s4.94-2.13 4.77-6.93z" class="Q R"/><g class="K"><path d="M884.55 186.7l-8.2 10.8s-.82 1.08-3.6 1.95a5 5 0 0 1-5-1.26l-.54-.4 7.8-10.25a10.49 10.49 0 0 1 4.09-2c1.9-.27 1.9-.27 5.47 1.18z" class="O"/><path d="M881.96 189l1.64-2.16a7 7 0 0 0-8.55 1.16l-1.17 2.1a5.81 5.81 0 0 1 8.08-1.1z" class="P"/></g></g><path d="M882.02 189.47l-4.1 5.4a6.76 6.76 0 0 1-8.62.69l4.52-5.94s5.8-3.7 8.2-.14z" class="N"/><g class="L"><path d="M877.72 195.05l-1 1.43s-4.1 5.4-9 1.22l1.64-2.15s4.65 2.6 8.36-.5z" class="K M"/><path d="M879.27 192.3l-1 1.42s-4.1 5.4-9 1.23l1.65-2.16s4.66 2.6 8.35-.5z" class="Q R"/></g></svg>