<svg xmlns="http://www.w3.org/2000/svg" viewBox="0 0 131.62 131.62"><circle cx="65.81" cy="65.81" r="65.81" fill="#08a655"/><path d="M48.6 59.05s-3.1-6.2-6.53-8-3.33-3.78-12.62-3.9S13.53 55 13.53 55s-5.16 7-5.16 14.83 5 18 5 18S24.08 102.85 29 106s2.4 3.32 19.6 15.13l8.4-5.78a197.48 197.48 0 0 0 18.21-16.17 98.56 98.56 0 0 0 10.2-13.53s4.48-9.33 3.56-17c0 0 .57-8-8.83-17.75 0 0-7.43-4.8-15.18-3.78s-12.1 5.4-16.35 11.93z" fill="#fff"/><path d="M58.13 58.04l-23.5 25.1 11.76 1.5-9.7 20.52L61.9 79.02l-12.27-.35 8.5-20.63z" fill="#08a655"/><path d="M92.87 16.25v10.9H82.32v10.9h10.55v10.32h10.9V37.8l10.43.23V27.25l-10.66-.23-.23-10.77H92.87z" fill="#fff"/></svg>