<svg xmlns="http://www.w3.org/2000/svg" viewBox="0 0 11.1 11.85"><g fill="#e8f5fe"><path d="M4.62 11.76a3.75 3.75 0 0 1-.75-.19 3.75 3.75 0 0 0 .75.19zm3.62-5.3a3.72 3.72 0 0 1-2.67-1.6 3.67 3.67 0 0 0 2.67 1.6zM5.57 7.7a3.94 3.94 0 0 0 2.66 1.4 4 4 0 0 1-2.66-1.39zM.65 3.14a7.23 7.23 0 0 1 .4-.66 5.52 5.52 0 0 0-.4.66zm-.6 1.98A5.88 5.88 0 0 1 .31 4a5.88 5.88 0 0 0-.25 1.12zM2.4 1l.5-.28-.5.28zm3.16 2.47a3.64 3.64 0 0 1-2.81 1.6 3.65 3.65 0 0 0 2.82-1.6zm-5.23.46a7.12 7.12 0 0 1 .31-.76 6.36 6.36 0 0 0-.31.76zM4 .23l.48-.1zM5.66 0c.22 0 .44 0 .65.06C6.1 0 5.88 0 5.66 0zm-.82.06a3.88 3.88 0 0 1 .48 0zm-1.6.48l.3-.13zm2.3 5.76a3.8 3.8 0 0 1-2.78 1.45 3.75 3.75 0 0 0 2.79-1.44zm-1.74 5.26c-.22-.08-.44-.18-.65-.28l.65.28zm-2.02-10l.34-.3zm-.63.73l.42-.5c-.15.16-.28.33-.42.5zM0 5.9a6.3 6.3 0 0 1 .05-.75A6.3 6.3 0 0 0 0 5.9zm2.87 3.2a3.62 3.62 0 0 1-2.48-1l-.22-.73a6 6 0 0 0 .58 1.51 5.51 5.51 0 0 1-.36-.78 3.62 3.62 0 0 0 2.48 1zm-1.14 1.12a7.45 7.45 0 0 1-.52-.6 7.45 7.45 0 0 0 .52.6zm.62.55l-.54-.47.54.47z"/><path d="M3 11.2a6.05 6.05 0 0 1-.63-.4 6.05 6.05 0 0 0 .63.4zM0 6.53a5.83 5.83 0 0 1 0-.59A6.84 6.84 0 0 0 .15 7.3 7 7 0 0 1 0 6.52zm.46-1a3.64 3.64 0 0 0 2.44 1 3.67 3.67 0 0 1-2.44-1l-.4-.4c.07.1.2.24.4.4zM1.2 9.6a6.33 6.33 0 0 1-.44-.7 6.33 6.33 0 0 0 .44.7zM6.5.1A5.65 5.65 0 0 1 10.76 4a3.77 3.77 0 0 1-2.43 1 3.78 3.78 0 0 0 2.46-1A6 6 0 0 1 11 5.17a5.81 5.81 0 0 1 .05.72v.65a4 4 0 0 1-2.79 1.19 4.07 4.07 0 0 0 2.8-1.16 6.45 6.45 0 0 1-.38 1.6 5.55 5.55 0 0 1-5.1 3.65 5.29 5.29 0 0 1-.8-.07 4.47 4.47 0 0 0 .82.07 5.74 5.74 0 0 0 5.5-5.89A5.82 5.82 0 0 0 6.51.1z"/><path d="M2.75 5.07a3.64 3.64 0 0 0 2.81-1.6 3.71 3.71 0 0 0 2.77 1.59 3.77 3.77 0 0 0 2.43-1A5.65 5.65 0 0 0 6.51.1h-.2C6.1 0 5.88 0 5.66 0h-.34a3.88 3.88 0 0 0-.48 0c-.12 0-.24 0-.36.06L4 .23a5 5 0 0 0-.5.18l-.25.13-.35.18-.5.28-.27.22-.34.3-.2.2c-.15.16-.28.33-.42.5l-.12.2a7.23 7.23 0 0 0-.4.66 7.12 7.12 0 0 0-.31.76 3.79 3.79 0 0 0 2.41 1.21zm7.88 3.13a3.53 3.53 0 0 1-2.4.9 3.94 3.94 0 0 1-2.66-1.37 4 4 0 0 1-2.7 1.38 3.62 3.62 0 0 1-2.48-1 5.51 5.51 0 0 0 .36.78 6.33 6.33 0 0 0 .44.7 7.45 7.45 0 0 0 .52.6l.08.08.54.47a6.05 6.05 0 0 0 .63.4l.14.07.65.28h.05a3.75 3.75 0 0 0 .75.19h.1a5.29 5.29 0 0 0 .8.07 5.55 5.55 0 0 0 5.17-3.55z"/></g><path d="M5.57 3.45a3.64 3.64 0 0 0 2.76 1.61 3.71 3.71 0 0 1-2.76-1.61z" fill="#123f6e"/><g fill="#e9f6fe"><path d="M8.24 6.47a3.67 3.67 0 0 1-2.67-1.58V6.3a3.81 3.81 0 0 0 2.69 1.42A4 4 0 0 0 11 6.57v-.65a5.81 5.81 0 0 0 0-.72l-.32.33a3.64 3.64 0 0 1-2.44.94z"/><path d="M10.65 5.53a3.56 3.56 0 0 1-2.41.94 3.64 3.64 0 0 0 2.45-.94l.3-.33a3.11 3.11 0 0 1-.35.33z"/></g><g fill="#123f6e"><path d="M8.23 9.1a3.53 3.53 0 0 0 2.4-.9 3.49 3.49 0 0 1-2.4.9zM5.57 6.3a3.77 3.77 0 0 0 2.69 1.43 3.81 3.81 0 0 1-2.69-1.44zM.06 5.13zM.3 4z"/><path d="M.3 3.98zm5.27-.5h.01v-.01l-.01.01zM.3 4a3.79 3.79 0 0 0 2.44 1.07A3.79 3.79 0 0 1 .31 4zm5.26.87z"/></g><g fill="#e9f6fe"><path d="M.05 5.15zM0 5.92z"/><path d="M0 6.53a4.16 4.16 0 0 0 2.78 1.22A3.8 3.8 0 0 0 5.56 6.3V4.9A3.71 3.71 0 0 1 2.9 6.49a3.64 3.64 0 0 1-2.44-1l-.4-.4a6.3 6.3 0 0 0 0 .75 5.83 5.83 0 0 0 0 .59z"/><path d="M2.9 6.5A3.71 3.71 0 0 0 5.56 4.9 3.74 3.74 0 0 1 2.9 6.49z"/></g><path d="M.17 7.38a.19.19 0 0 0 0-.08.19.19 0 0 1 0 .08zm5.4.34a4 4 0 0 1-2.69 1.39 4 4 0 0 0 2.7-1.38zm.01-1.42zM0 6.53a4.16 4.16 0 0 0 2.78 1.22A4.16 4.16 0 0 1 0 6.53z" fill="#123f6e"/></svg>