<svg xmlns="http://www.w3.org/2000/svg" xmlns:xlink="http://www.w3.org/1999/xlink" viewBox="0 0 558.28 16.97"><style><![CDATA[.F{stroke:#1d5099}.G{stroke-miterlimit:10}.H{fill:none}.I{fill:#b0c8ff}.J{fill:#fff}.K{fill:#2668aa}.L{stroke:#2668aa}.M{fill:#1d5099}]]></style><g class="F G"><path d="M473.54 1.05l-6 12.2s-.6 1.22-3.15 2.6a5 5 0 0 1-5.16-.25l-.6-.3 5.65-11.58A10.35 10.35 0 0 1 467.93 1c1.8-.67 1.8-.67 5.6.05z" class="H"/><use xlink:href="#B" class="I"/></g><use xlink:href="#C" class="J"/><g class="G"><use xlink:href="#D" class="F M"/><use xlink:href="#D" x="1" y="-3" class="K L"/><g class="F"><path d="M481.54 1.05l-6 12.2s-.6 1.22-3.15 2.6a5 5 0 0 1-5.16-.25l-.6-.3 5.65-11.58A10.35 10.35 0 0 1 475.93 1c1.8-.67 1.8-.67 5.6.05z" class="H"/><use xlink:href="#B" x="8" class="I"/></g></g><use xlink:href="#C" x="8" class="J"/><g class="G"><use xlink:href="#D" x="8" class="F M"/><use xlink:href="#D" x="9" y="-3" class="K L"/><g class="F"><path d="M490.54 1.05l-6 12.2s-.6 1.22-3.15 2.6a5 5 0 0 1-5.16-.25l-.6-.3 5.65-11.58A10.35 10.35 0 0 1 484.93 1c1.8-.67 1.8-.67 5.6.05z" class="H"/><use xlink:href="#B" x="17" class="I"/></g></g><use xlink:href="#C" x="17" class="J"/><g class="G"><use xlink:href="#D" x="17" class="F M"/><use xlink:href="#D" x="18" y="-3" class="K L"/><g class="F"><path d="M498.54 1.05l-6 12.2s-.6 1.22-3.15 2.6a5 5 0 0 1-5.16-.25l-.6-.3 5.65-11.58A10.35 10.35 0 0 1 492.93 1c1.8-.67 1.8-.67 5.6.05z" class="H"/><use xlink:href="#B" x="25" class="I"/></g></g><use xlink:href="#C" x="25" class="J"/><g class="G"><use xlink:href="#D" x="25" class="F M"/><use xlink:href="#D" x="26" y="-3" class="K L"/><g class="F"><path d="M506.54 1.05l-6 12.2s-.6 1.22-3.15 2.6a5 5 0 0 1-5.16-.25l-.6-.3 5.65-11.58A10.35 10.35 0 0 1 500.93 1c1.8-.67 1.8-.67 5.6.05z" class="H"/><use xlink:href="#B" x="33" class="I"/></g></g><use xlink:href="#C" x="33" class="J"/><g class="G"><use xlink:href="#D" x="33" class="F M"/><use xlink:href="#D" x="34" y="-3" class="K L"/><g class="F"><path d="M514.54 1.05l-5.95 12.2s-.6 1.22-3.15 2.6a5 5 0 0 1-5.16-.25l-.6-.3 5.65-11.58A10.35 10.35 0 0 1 508.93 1c1.8-.67 1.8-.67 5.6.05z" class="H"/><use xlink:href="#B" x="41" class="I"/></g></g><use xlink:href="#C" x="41" class="J"/><g class="G"><use xlink:href="#D" x="41" class="F M"/><use xlink:href="#D" x="42" y="-3" class="K L"/><g class="F"><path d="M523.54 1.05l-5.95 12.2s-.6 1.22-3.15 2.6a5 5 0 0 1-5.16-.25l-.6-.3 5.65-11.58A10.35 10.35 0 0 1 517.93 1c1.8-.67 1.8-.67 5.6.05z" class="H"/><use xlink:href="#B" x="50" class="I"/></g></g><use xlink:href="#C" x="50" class="J"/><g class="G"><use xlink:href="#D" x="50" class="F M"/><use xlink:href="#D" x="51" y="-3" class="K L"/><g class="F"><path d="M531.54 1.05l-5.95 12.2s-.6 1.22-3.15 2.6a5 5 0 0 1-5.16-.25l-.6-.3 5.65-11.58A10.35 10.35 0 0 1 525.93 1c1.8-.67 1.8-.67 5.6.05z" class="H"/><use xlink:href="#B" x="58" class="I"/></g></g><use xlink:href="#C" x="58" class="J"/><g class="G"><use xlink:href="#D" x="58" class="F M"/><use xlink:href="#D" x="59" y="-3" class="K L"/><g class="F"><path d="M540.54 1.05l-5.95 12.2s-.6 1.22-3.15 2.6a5 5 0 0 1-5.16-.25l-.6-.3 5.65-11.58A10.35 10.35 0 0 1 534.93 1c1.8-.67 1.8-.67 5.6.05z" class="H"/><use xlink:href="#B" x="67" class="I"/></g></g><use xlink:href="#C" x="67" class="J"/><g class="G"><use xlink:href="#D" x="67" class="F M"/><use xlink:href="#D" x="68" y="-3" class="K L"/><g class="F"><path d="M548.54 1.05l-5.95 12.2s-.6 1.22-3.15 2.6a5 5 0 0 1-5.16-.25l-.6-.3 5.65-11.58A10.35 10.35 0 0 1 542.93 1c1.8-.67 1.8-.67 5.6.05z" class="H"/><use xlink:href="#B" x="75" class="I"/></g></g><use xlink:href="#C" x="75" class="J"/><g class="G"><use xlink:href="#D" x="75" class="F M"/><use xlink:href="#D" x="76" y="-3" class="K L"/><g class="F"><path d="M557.54 1.05l-5.95 12.2s-.6 1.22-3.15 2.6a5 5 0 0 1-5.16-.25l-.6-.3 5.65-11.58A10.35 10.35 0 0 1 551.93 1c1.8-.67 1.8-.67 5.6.05z" class="H"/><use xlink:href="#B" x="84" class="I"/></g></g><use xlink:href="#C" x="84" class="J"/><g class="G"><use xlink:href="#D" x="84" class="F M"/><use xlink:href="#D" x="85" y="-3" class="K L"/><g class="F"><path d="M15.54 1.05L9.6 13.24s-.6 1.22-3.15 2.6a5 5 0 0 1-5.16-.25l-.6-.3L6.32 3.72A10.35 10.35 0 0 1 9.93 1c1.8-.67 1.8-.67 5.6.05z" class="H"/><use xlink:href="#B" x="-458" class="I"/></g></g><path d="M13.6 4.26l-3 6.1a6.77 6.77 0 0 1-8.32 2.36L5.58 6s4.96-4.75 8.02-1.74z" class="J"/><g class="G"><path d="M11.46 7.58l-.72 1.6s-3 6.1-8.62 3L3.3 9.7s5.13 1.62 8.15-2.13z" class="K L"/><g class="F"><path d="M24.54 1.05l-5.95 12.2s-.6 1.22-3.15 2.6a5 5 0 0 1-5.16-.25l-.6-.3 5.65-11.58A10.35 10.35 0 0 1 18.93 1c1.8-.67 1.8-.67 5.6.05z" class="H"/><use xlink:href="#B" x="-449" class="I"/></g></g><use xlink:href="#C" x="-449" class="J"/><g class="G"><use xlink:href="#D" x="-449" class="F M"/><use xlink:href="#D" x="-448" y="-3" class="K L"/><g class="F"><path d="M32.54 1.05l-5.95 12.2s-.6 1.22-3.15 2.6a5 5 0 0 1-5.16-.25l-.6-.3 5.65-11.58A10.35 10.35 0 0 1 26.93 1c1.8-.67 1.8-.67 5.6.05z" class="H"/><use xlink:href="#B" x="-441" class="I"/></g></g><use xlink:href="#C" x="-441" class="J"/><g class="G"><use xlink:href="#D" x="-441" class="F M"/><use xlink:href="#D" x="-440" y="-3" class="K L"/><g class="F"><path d="M40.54 1.05l-5.95 12.2s-.6 1.22-3.15 2.6a5 5 0 0 1-5.16-.25l-.6-.3 5.65-11.58A10.35 10.35 0 0 1 34.93 1c1.8-.67 1.8-.67 5.6.05z" class="H"/><use xlink:href="#B" x="-433" class="I"/></g></g><use xlink:href="#C" x="-433" class="J"/><g class="G"><use xlink:href="#D" x="-433" class="F M"/><use xlink:href="#D" x="-432" y="-3" class="K L"/><g class="F"><path d="M48.54 1.05l-5.95 12.2s-.6 1.22-3.15 2.6a5 5 0 0 1-5.16-.25l-.6-.3 5.65-11.58A10.35 10.35 0 0 1 42.93 1c1.8-.67 1.8-.67 5.6.05z" class="H"/><use xlink:href="#B" x="-425" class="I"/></g></g><use xlink:href="#C" x="-425" class="J"/><g class="G"><use xlink:href="#D" x="-425" class="F M"/><use xlink:href="#D" x="-424" y="-3" class="K L"/><g class="F"><path d="M57.54 1.05l-5.95 12.2s-.6 1.22-3.15 2.6a5 5 0 0 1-5.16-.25l-.6-.3 5.65-11.58A10.35 10.35 0 0 1 51.93 1c1.8-.67 1.8-.67 5.6.05z" class="H"/><use xlink:href="#B" x="-416" class="I"/></g></g><use xlink:href="#C" x="-416" class="J"/><g class="G"><use xlink:href="#D" x="-416" class="F M"/><use xlink:href="#D" x="-415" y="-3" class="K L"/><g class="F"><path d="M65.54 1.05l-6 12.2s-.6 1.22-3.15 2.6a5 5 0 0 1-5.16-.25l-.6-.3 5.7-11.58A10.35 10.35 0 0 1 59.93 1c1.8-.67 1.8-.67 5.6.05z" class="H"/><use xlink:href="#B" x="-408" class="I"/></g></g><use xlink:href="#C" x="-408" class="J"/><g class="G"><use xlink:href="#D" x="-408" class="F M"/><use xlink:href="#D" x="-407" y="-3" class="K L"/><g class="F"><path d="M73.54 1.05l-6 12.2s-.6 1.22-3.15 2.6a5 5 0 0 1-5.16-.25l-.6-.3 5.7-11.58A10.35 10.35 0 0 1 67.93 1c1.8-.67 1.8-.67 5.6.05z" class="H"/><use xlink:href="#B" x="-400" class="I"/></g></g><use xlink:href="#C" x="-400" class="J"/><g class="G"><use xlink:href="#D" x="-400" class="F M"/><use xlink:href="#D" x="-399" y="-3" class="K L"/><g class="F"><path d="M81.54 1.05l-6 12.2s-.6 1.22-3.15 2.6a5 5 0 0 1-5.16-.25l-.6-.3 5.7-11.58A10.35 10.35 0 0 1 75.93 1c1.8-.67 1.8-.67 5.6.05z" class="H"/><use xlink:href="#B" x="-392" class="I"/></g></g><use xlink:href="#C" x="-392" class="J"/><g class="G"><use xlink:href="#D" x="-392" class="F M"/><use xlink:href="#D" x="-391" y="-3" class="K L"/><g class="F"><path d="M90.54 1.05l-6 12.2s-.6 1.22-3.15 2.6a5 5 0 0 1-5.16-.25l-.6-.3 5.7-11.58A10.35 10.35 0 0 1 84.93 1c1.8-.67 1.8-.67 5.6.05z" class="H"/><use xlink:href="#B" x="-383" class="I"/></g></g><use xlink:href="#C" x="-383" class="J"/><g class="G"><use xlink:href="#D" x="-383" class="F M"/><use xlink:href="#D" x="-382" y="-3" class="K L"/><g class="F"><path d="M98.54 1.05l-6 12.2s-.6 1.22-3.15 2.6a5 5 0 0 1-5.16-.25l-.6-.3 5.7-11.58A10.35 10.35 0 0 1 92.93 1c1.8-.67 1.8-.67 5.6.05z" class="H"/><use xlink:href="#B" x="-375" class="I"/></g></g><use xlink:href="#C" x="-375" class="J"/><g class="G"><use xlink:href="#D" x="-375" class="F M"/><use xlink:href="#D" x="-374" y="-3" class="K L"/><g class="F"><path d="M106.54 1.05l-6 12.2s-.6 1.22-3.15 2.6a5 5 0 0 1-5.16-.25l-.6-.3 5.7-11.58A10.35 10.35 0 0 1 100.93 1c1.8-.67 1.8-.67 5.6.05z" class="H"/><use xlink:href="#B" x="-367" class="I"/></g></g><use xlink:href="#C" x="-367" class="J"/><g class="G"><use xlink:href="#D" x="-366" y="-3" class="K L"/><g class="F"><path d="M114.54 1.05l-6 12.2s-.6 1.22-3.15 2.6a5 5 0 0 1-5.16-.25l-.6-.3 5.65-11.58A10.35 10.35 0 0 1 108.93 1c1.8-.67 1.8-.67 5.6.05z" class="H"/><use xlink:href="#B" x="-359" class="I"/></g></g><use xlink:href="#C" x="-359" class="J"/><g class="F G M"><use xlink:href="#D" x="-359"/><use xlink:href="#D" x="-367"/></g><use xlink:href="#D" x="-358" y="-3" class="G K L"/><g class="F G"><path d="M123.54 1.05l-6 12.2s-.6 1.22-3.15 2.6a5 5 0 0 1-5.16-.25l-.6-.3 5.65-11.58A10.35 10.35 0 0 1 117.93 1c1.8-.67 1.8-.67 5.6.05z" class="H"/><use xlink:href="#B" x="-350" class="I"/></g><use xlink:href="#C" x="-350" class="J"/><g class="G"><use xlink:href="#D" x="-350" class="F M"/><use xlink:href="#D" x="-349" y="-3" class="K L"/><g class="F"><path d="M131.54 1.05l-5.95 12.2s-.6 1.22-3.15 2.6a5 5 0 0 1-5.16-.25l-.6-.3 5.65-11.58A10.35 10.35 0 0 1 125.93 1c1.8-.67 1.8-.67 5.6.05z" class="H"/><use xlink:href="#B" x="-342" class="I"/></g></g><use xlink:href="#C" x="-342" class="J"/><g class="G"><use xlink:href="#D" x="-342" class="F M"/><use xlink:href="#D" x="-341" y="-3" class="K L"/><g class="F"><path d="M140.54 1.05l-5.95 12.2s-.6 1.22-3.15 2.6a5 5 0 0 1-5.16-.25l-.6-.3 5.65-11.58A10.35 10.35 0 0 1 134.93 1c1.8-.67 1.8-.67 5.6.05z" class="H"/><use xlink:href="#B" x="-333" class="I"/></g></g><use xlink:href="#C" x="-333" class="J"/><g class="G"><use xlink:href="#D" x="-333" class="F M"/><use xlink:href="#D" x="-332" y="-3" class="K L"/><g class="F"><path d="M148.54 1.05l-5.95 12.2s-.6 1.22-3.15 2.6a5 5 0 0 1-5.16-.25l-.6-.3 5.65-11.58A10.35 10.35 0 0 1 142.93 1c1.8-.67 1.8-.67 5.6.05z" class="H"/><use xlink:href="#B" x="-325" class="I"/></g></g><use xlink:href="#C" x="-325" class="J"/><g class="G"><use xlink:href="#D" x="-325" class="F M"/><use xlink:href="#D" x="-324" y="-3" class="K L"/><g class="F"><path d="M157.54 1.05l-5.95 12.2s-.6 1.22-3.15 2.6a5 5 0 0 1-5.16-.25l-.6-.3 5.65-11.58A10.35 10.35 0 0 1 151.93 1c1.8-.67 1.8-.67 5.6.05z" class="H"/><use xlink:href="#B" x="-316" class="I"/></g></g><use xlink:href="#C" x="-316" class="J"/><g class="G"><use xlink:href="#D" x="-316" class="F M"/><use xlink:href="#D" x="-315" y="-3" class="K L"/><g class="F"><path d="M165.54 1.05l-5.95 12.2s-.6 1.22-3.15 2.6a5 5 0 0 1-5.16-.25l-.6-.3 5.65-11.58A10.35 10.35 0 0 1 159.93 1c1.8-.67 1.8-.67 5.6.05z" class="H"/><use xlink:href="#B" x="-308" class="I"/></g></g><use xlink:href="#C" x="-308" class="J"/><g class="G"><use xlink:href="#D" x="-308" class="F M"/><use xlink:href="#D" x="-307" y="-3" class="K L"/><g class="F"><path d="M173.54 1.05l-5.95 12.2s-.6 1.22-3.15 2.6a5 5 0 0 1-5.16-.25l-.6-.3 5.65-11.58A10.35 10.35 0 0 1 167.93 1c1.8-.67 1.8-.67 5.6.05z" class="H"/><use xlink:href="#B" x="-300" class="I"/></g></g><use xlink:href="#C" x="-300" class="J"/><g class="G"><use xlink:href="#D" x="-300" class="F M"/><use xlink:href="#D" x="-299" y="-3" class="K L"/><g class="F"><path d="M181.54 1.05l-5.95 12.2s-.6 1.22-3.15 2.6a5 5 0 0 1-5.16-.25l-.6-.3 5.65-11.58A10.35 10.35 0 0 1 175.93 1c1.8-.67 1.8-.67 5.6.05z" class="H"/><use xlink:href="#B" x="-292" class="I"/></g></g><use xlink:href="#C" x="-292" class="J"/><g class="G"><use xlink:href="#D" x="-292" class="F M"/><use xlink:href="#D" x="-291" y="-3" class="K L"/><g class="F"><path d="M190.54 1.05l-5.95 12.2s-.6 1.22-3.15 2.6a5 5 0 0 1-5.16-.25l-.6-.3 5.65-11.58A10.35 10.35 0 0 1 184.93 1c1.8-.67 1.8-.67 5.6.05z" class="H"/><use xlink:href="#B" x="-283" class="I"/></g></g><use xlink:href="#C" x="-283" class="J"/><g class="G"><use xlink:href="#D" x="-283" class="F M"/><use xlink:href="#D" x="-282" y="-3" class="K L"/><g class="F"><path d="M198.54 1.05l-5.95 12.2s-.6 1.22-3.15 2.6a5 5 0 0 1-5.16-.25l-.6-.3 5.65-11.58A10.35 10.35 0 0 1 192.93 1c1.8-.67 1.8-.67 5.6.05z" class="H"/><use xlink:href="#B" x="-275" class="I"/></g></g><use xlink:href="#C" x="-275" class="J"/><g class="G"><use xlink:href="#D" x="-275" class="F M"/><use xlink:href="#D" x="-274" y="-3" class="K L"/><g class="F"><path d="M207.54 1.05l-5.95 12.2s-.6 1.22-3.15 2.6a5 5 0 0 1-5.16-.25l-.6-.3 5.65-11.58A10.35 10.35 0 0 1 201.93 1c1.8-.67 1.8-.67 5.6.05z" class="H"/><use xlink:href="#B" x="-266" class="I"/></g></g><use xlink:href="#C" x="-266" class="J"/><g class="G"><use xlink:href="#D" x="-266" class="F M"/><use xlink:href="#D" x="-265" y="-3" class="K L"/><g class="F"><path d="M215.54 1.05l-5.95 12.2s-.6 1.22-3.15 2.6a5 5 0 0 1-5.16-.25l-.6-.3 5.65-11.58A10.35 10.35 0 0 1 209.93 1c1.8-.67 1.8-.67 5.6.05z" class="H"/><use xlink:href="#B" x="-258" class="I"/></g></g><use xlink:href="#C" x="-258" class="J"/><g class="G"><use xlink:href="#D" x="-258" class="F M"/><use xlink:href="#D" x="-257" y="-3" class="K L"/><g class="F"><path d="M224.54 1.05l-5.95 12.2s-.6 1.22-3.15 2.6a5 5 0 0 1-5.16-.25l-.6-.3 5.65-11.58A10.35 10.35 0 0 1 218.93 1c1.8-.67 1.8-.67 5.6.05z" class="H"/><use xlink:href="#B" x="-249" class="I"/></g></g><use xlink:href="#C" x="-249" class="J"/><g class="G"><use xlink:href="#D" x="-249" class="F M"/><use xlink:href="#D" x="-248" y="-3" class="K L"/><g class="F"><path d="M232.54 1.05l-5.95 12.2s-.6 1.22-3.15 2.6a5 5 0 0 1-5.16-.25l-.6-.3 5.65-11.58A10.35 10.35 0 0 1 226.93 1c1.8-.67 1.8-.67 5.6.05z" class="H"/><use xlink:href="#B" x="-241" class="I"/></g></g><use xlink:href="#C" x="-241" class="J"/><g class="G"><use xlink:href="#D" x="-241" class="F M"/><use xlink:href="#D" x="-240" y="-3" class="K L"/><g class="F"><path d="M240.54 1.05l-5.95 12.2s-.6 1.22-3.15 2.6a5 5 0 0 1-5.16-.25l-.6-.3 5.65-11.58A10.35 10.35 0 0 1 234.93 1c1.8-.67 1.8-.67 5.6.05z" class="H"/><use xlink:href="#B" x="-233" class="I"/></g></g><use xlink:href="#C" x="-233" class="J"/><g class="G"><use xlink:href="#D" x="-233" class="F M"/><use xlink:href="#D" x="-232" y="-3" class="K L"/><g class="F"><path d="M248.54 1.05l-5.95 12.2s-.6 1.22-3.15 2.6a5 5 0 0 1-5.16-.25l-.6-.3 5.65-11.58A10.35 10.35 0 0 1 242.93 1c1.8-.67 1.8-.67 5.6.05z" class="H"/><use xlink:href="#B" x="-225" class="I"/></g></g><use xlink:href="#C" x="-225" class="J"/><g class="G"><use xlink:href="#D" x="-225" class="F M"/><use xlink:href="#D" x="-224" y="-3" class="K L"/><g class="F"><path d="M257.54 1.05l-6 12.2s-.6 1.22-3.15 2.6a5 5 0 0 1-5.16-.25l-.6-.3 5.65-11.58A10.35 10.35 0 0 1 251.93 1c1.8-.67 1.8-.67 5.6.05z" class="H"/><use xlink:href="#B" x="-216" class="I"/></g></g><use xlink:href="#C" x="-216" class="J"/><g class="G"><use xlink:href="#D" x="-216" class="F M"/><use xlink:href="#D" x="-215" y="-3" class="K L"/><g class="F"><path d="M265.54 1.05l-6 12.2s-.6 1.22-3.15 2.6a5 5 0 0 1-5.16-.25l-.6-.3 5.65-11.58A10.35 10.35 0 0 1 259.93 1c1.8-.67 1.8-.67 5.6.05z" class="H"/><use xlink:href="#B" x="-208" class="I"/></g></g><use xlink:href="#C" x="-208" class="J"/><g class="G"><use xlink:href="#D" x="-208" class="F M"/><use xlink:href="#D" x="-207" y="-3" class="K L"/><g class="F"><path d="M274.54 1.05l-6 12.2s-.6 1.22-3.15 2.6a5 5 0 0 1-5.16-.25l-.6-.3 5.65-11.58A10.35 10.35 0 0 1 268.93 1c1.8-.67 1.8-.67 5.6.05z" class="H"/><use xlink:href="#B" x="-199" class="I"/></g></g><use xlink:href="#C" x="-199" class="J"/><g class="G"><use xlink:href="#D" x="-199" class="F M"/><use xlink:href="#D" x="-198" y="-3" class="K L"/><g class="F"><path d="M282.54 1.05l-6 12.2s-.6 1.22-3.15 2.6a5 5 0 0 1-5.16-.25l-.6-.3 5.65-11.58A10.35 10.35 0 0 1 276.93 1c1.8-.67 1.8-.67 5.6.05z" class="H"/><use xlink:href="#B" x="-191" class="I"/></g></g><use xlink:href="#C" x="-191" class="J"/><g class="G"><use xlink:href="#D" x="-191" class="F M"/><use xlink:href="#D" x="-190" y="-3" class="K L"/><g class="F"><path d="M291.54 1.05l-6 12.2s-.6 1.22-3.15 2.6a5 5 0 0 1-5.16-.25l-.6-.3 5.65-11.58A10.35 10.35 0 0 1 285.93 1c1.8-.67 1.8-.67 5.6.05z" class="H"/><use xlink:href="#B" x="-182" class="I"/></g></g><use xlink:href="#C" x="-182" class="J"/><g class="G"><use xlink:href="#D" x="-182" class="F M"/><use xlink:href="#D" x="-181" y="-3" class="K L"/><g class="F"><path d="M299.54 1.05l-6 12.2s-.6 1.22-3.15 2.6a5 5 0 0 1-5.16-.25l-.6-.3 5.65-11.58A10.35 10.35 0 0 1 293.93 1c1.8-.67 1.8-.67 5.6.05z" class="H"/><use xlink:href="#B" x="-174" class="I"/></g></g><use xlink:href="#C" x="-174" class="J"/><g class="G"><use xlink:href="#D" x="-174" class="F M"/><use xlink:href="#D" x="-173" y="-3" class="K L"/><g class="F"><path d="M307.54 1.05l-6 12.2s-.6 1.22-3.15 2.6a5 5 0 0 1-5.16-.25l-.6-.3 5.65-11.58A10.35 10.35 0 0 1 301.93 1c1.8-.67 1.8-.67 5.6.05z" class="H"/><use xlink:href="#B" x="-166" class="I"/></g></g><use xlink:href="#C" x="-166" class="J"/><g class="G"><use xlink:href="#D" x="-166" class="F M"/><use xlink:href="#D" x="-165" y="-3" class="K L"/><g class="F"><path d="M315.54 1.05l-6 12.2s-.6 1.22-3.15 2.6a5 5 0 0 1-5.16-.25l-.6-.3 5.65-11.58A10.35 10.35 0 0 1 309.93 1c1.8-.67 1.8-.67 5.6.05z" class="H"/><use xlink:href="#B" x="-158" class="I"/></g></g><use xlink:href="#C" x="-158" class="J"/><g class="G"><use xlink:href="#D" x="-158" class="F M"/><use xlink:href="#D" x="-157" y="-3" class="K L"/><g class="F"><path d="M324.54 1.05l-6 12.2s-.6 1.22-3.15 2.6a5 5 0 0 1-5.16-.25l-.6-.3 5.65-11.58A10.35 10.35 0 0 1 318.93 1c1.8-.67 1.8-.67 5.6.05z" class="H"/><use xlink:href="#B" x="-149" class="I"/></g></g><use xlink:href="#C" x="-149" class="J"/><g class="G"><use xlink:href="#D" x="-149" class="F M"/><use xlink:href="#D" x="-148" y="-3" class="K L"/><g class="F"><path d="M332.54 1.05l-6 12.2s-.6 1.22-3.15 2.6a5 5 0 0 1-5.16-.25l-.6-.3 5.65-11.58A10.35 10.35 0 0 1 326.93 1c1.8-.67 1.8-.67 5.6.05z" class="H"/><use xlink:href="#B" x="-141" class="I"/></g></g><use xlink:href="#C" x="-141" class="J"/><g class="G"><use xlink:href="#D" x="-141" class="F M"/><use xlink:href="#D" x="-140" y="-3" class="K L"/><g class="F"><path d="M340.54 1.05l-6 12.2s-.6 1.22-3.15 2.6a5 5 0 0 1-5.16-.25l-.6-.3 5.65-11.58A10.35 10.35 0 0 1 334.93 1c1.8-.67 1.8-.67 5.6.05z" class="H"/><use xlink:href="#B" x="-133" class="I"/></g></g><use xlink:href="#C" x="-133" class="J"/><g class="G"><use xlink:href="#D" x="-133" class="F M"/><use xlink:href="#D" x="-132" y="-3" class="K L"/><g class="F"><path d="M348.54 1.05l-6 12.2s-.6 1.22-3.15 2.6a5 5 0 0 1-5.16-.25l-.6-.3 5.65-11.58A10.35 10.35 0 0 1 342.93 1c1.8-.67 1.8-.67 5.6.05z" class="H"/><use xlink:href="#B" x="-125" class="I"/></g></g><use xlink:href="#C" x="-125" class="J"/><g class="G"><use xlink:href="#D" x="-125" class="F M"/><use xlink:href="#D" x="-124" y="-3" class="K L"/><g class="F"><path d="M357.54 1.05l-6 12.2s-.6 1.22-3.15 2.6a5 5 0 0 1-5.16-.25l-.6-.3 5.65-11.58A10.35 10.35 0 0 1 351.93 1c1.8-.67 1.8-.67 5.6.05z" class="H"/><use xlink:href="#B" x="-116" class="I"/></g></g><use xlink:href="#C" x="-116" class="J"/><g class="G"><use xlink:href="#D" x="-116" class="F M"/><use xlink:href="#D" x="-115" y="-3" class="K L"/><g class="F"><path d="M365.54 1.05l-6 12.2s-.6 1.22-3.15 2.6a5 5 0 0 1-5.16-.25l-.6-.3 5.65-11.58A10.35 10.35 0 0 1 359.93 1c1.8-.67 1.8-.67 5.6.05z" class="H"/><use xlink:href="#B" x="-108" class="I"/></g></g><use xlink:href="#C" x="-108" class="J"/><g class="G"><use xlink:href="#D" x="-108" class="F M"/><use xlink:href="#D" x="-107" y="-3" class="K L"/><g class="F"><path d="M373.54 1.05l-6 12.2s-.6 1.22-3.15 2.6a5 5 0 0 1-5.16-.25l-.6-.3 5.65-11.58A10.35 10.35 0 0 1 367.93 1c1.8-.67 1.8-.67 5.6.05z" class="H"/><use xlink:href="#B" x="-100" class="I"/></g></g><use xlink:href="#C" x="-100" class="J"/><g class="G"><use xlink:href="#D" x="-99" y="-3" class="K L"/><g class="F"><path d="M381.54 1.05l-6 12.2s-.6 1.22-3.15 2.6a5 5 0 0 1-5.16-.25l-.6-.3 5.65-11.58A10.35 10.35 0 0 1 375.93 1c1.8-.67 1.8-.67 5.6.05z" class="H"/><use xlink:href="#B" x="-92" class="I"/></g></g><use xlink:href="#C" x="-92" class="J"/><g class="F G M"><use xlink:href="#D" x="-92"/><use xlink:href="#D" x="-100"/></g><use xlink:href="#D" x="-91" y="-3" class="G K L"/><g class="F G"><path d="M390.54 1.05l-6 12.2s-.6 1.22-3.15 2.6a5 5 0 0 1-5.16-.25l-.6-.3 5.65-11.58A10.35 10.35 0 0 1 384.93 1c1.8-.67 1.8-.67 5.6.05z" class="H"/><use xlink:href="#B" x="-83" class="I"/></g><use xlink:href="#C" x="-83" class="J"/><g class="G"><use xlink:href="#D" x="-83" class="F M"/><use xlink:href="#D" x="-82" y="-3" class="K L"/><g class="F"><path d="M398.54 1.05l-6 12.2s-.6 1.22-3.15 2.6a5 5 0 0 1-5.16-.25l-.6-.3 5.65-11.58A10.35 10.35 0 0 1 392.93 1c1.8-.67 1.8-.67 5.6.05z" class="H"/><use xlink:href="#B" x="-75" class="I"/></g></g><use xlink:href="#C" x="-75" class="J"/><g class="G"><use xlink:href="#D" x="-75" class="F M"/><use xlink:href="#D" x="-74" y="-3" class="K L"/><g class="F"><path d="M407.54 1.05l-6 12.2s-.6 1.22-3.15 2.6a5 5 0 0 1-5.16-.25l-.6-.3 5.65-11.58A10.35 10.35 0 0 1 401.93 1c1.8-.67 1.8-.67 5.6.05z" class="H"/><use xlink:href="#B" x="-66" class="I"/></g></g><use xlink:href="#C" x="-66" class="J"/><g class="G"><use xlink:href="#D" x="-66" class="F M"/><use xlink:href="#D" x="-65" y="-3" class="K L"/><g class="F"><path d="M415.54 1.05l-6 12.2s-.6 1.22-3.15 2.6a5 5 0 0 1-5.16-.25l-.6-.3 5.65-11.58A10.35 10.35 0 0 1 409.93 1c1.8-.67 1.8-.67 5.6.05z" class="H"/><use xlink:href="#B" x="-58" class="I"/></g></g><use xlink:href="#C" x="-58" class="J"/><g class="G"><use xlink:href="#D" x="-58" class="F M"/><use xlink:href="#D" x="-57" y="-3" class="K L"/><g class="F"><path d="M424.54 1.05l-6 12.2s-.6 1.22-3.15 2.6a5 5 0 0 1-5.16-.25l-.6-.3 5.65-11.58A10.35 10.35 0 0 1 418.93 1c1.8-.67 1.8-.67 5.6.05z" class="H"/><use xlink:href="#B" x="-49" class="I"/></g></g><use xlink:href="#C" x="-49" class="J"/><g class="G"><use xlink:href="#D" x="-49" class="F M"/><use xlink:href="#D" x="-48" y="-3" class="K L"/><g class="F"><path d="M432.54 1.05l-6 12.2s-.6 1.22-3.15 2.6a5 5 0 0 1-5.16-.25l-.6-.3 5.65-11.58A10.35 10.35 0 0 1 426.93 1c1.8-.67 1.8-.67 5.6.05z" class="H"/><use xlink:href="#B" x="-41" class="I"/></g></g><use xlink:href="#C" x="-41" class="J"/><g class="G"><use xlink:href="#D" x="-41" class="F M"/><use xlink:href="#D" x="-40" y="-3" class="K L"/><g class="F"><path d="M440.54 1.05l-6 12.2s-.6 1.22-3.15 2.6a5 5 0 0 1-5.16-.25l-.6-.3 5.65-11.58A10.35 10.35 0 0 1 434.93 1c1.8-.67 1.8-.67 5.6.05z" class="H"/><use xlink:href="#B" x="-33" class="I"/></g></g><use xlink:href="#C" x="-33" class="J"/><g class="G"><use xlink:href="#D" x="-33" class="F M"/><use xlink:href="#D" x="-32" y="-3" class="K L"/><g class="F"><path d="M448.54 1.05l-6 12.2s-.6 1.22-3.15 2.6a5 5 0 0 1-5.16-.25l-.6-.3 5.65-11.58A10.35 10.35 0 0 1 442.93 1c1.8-.67 1.8-.67 5.6.05z" class="H"/><use xlink:href="#B" x="-25" class="I"/></g></g><use xlink:href="#C" x="-25" class="J"/><g class="G"><use xlink:href="#D" x="-25" class="F M"/><use xlink:href="#D" x="-24" y="-3" class="K L"/><g class="F"><path d="M457.54 1.05l-6 12.2s-.6 1.22-3.15 2.6a5 5 0 0 1-5.16-.25l-.6-.3 5.65-11.58A10.35 10.35 0 0 1 451.93 1c1.8-.67 1.8-.67 5.6.05z" class="H"/><use xlink:href="#B" x="-16" class="I"/></g></g><use xlink:href="#C" x="-16" class="J"/><g class="G"><use xlink:href="#D" x="-16" class="F M"/><use xlink:href="#D" x="-15" y="-3" class="K L"/><g class="F"><path d="M465.54 1.05l-6 12.2s-.6 1.22-3.15 2.6a5 5 0 0 1-5.16-.25l-.6-.3 5.65-11.58A10.35 10.35 0 0 1 459.93 1c1.8-.67 1.8-.67 5.6.05z" class="H"/><use xlink:href="#B" x="-8" class="I"/></g></g><use xlink:href="#C" x="-8" class="J"/><g class="G"><use xlink:href="#D" x="-8" class="F M"/><use xlink:href="#D" x="-7" y="-3" class="K L"/></g><defs ><path id="B" d="M471.44 3.8l1.2-2.43a7 7 0 0 0-8.16 2.81l-.73 2.28a5.8 5.8 0 0 1 7.7-2.66z"/><path id="C" d="M471.6 4.26l-3 6.1a6.77 6.77 0 0 1-8.32 2.36l3.3-6.7s4.96-4.75 8.02-1.74z"/><path id="D" d="M468.46 10.58l-.72 1.6s-3 6.1-8.62 3l1.2-2.44s5.13 1.6 8.15-2.16z"/></defs></svg>