<svg xmlns="http://www.w3.org/2000/svg" xmlns:xlink="http://www.w3.org/1999/xlink" viewBox="0 0 1428.14 1010.81"><path d="M0 110.92h976.58v899.88H0z"/><image width="684" height="634" transform="matrix(1.4 0 0 1.38 11.63 122.18)" xlink:href="../../Sk%C3%A6rmbillede%202019-12-05%20kl.%2022.54.37.png"/><path d="M872.94 420.66l24.22 30.76-212.74 152.5L521.2 731.84l144.87-144.6L848.73 389.9l24.2 30.77z"/><path d="M515.2 709.55c0-2.6 2.68-4.7 6-4.7s6 2.1 6 4.7-2.7 4.7-6 4.7-6-2.1-6-4.7" fill="#e50e2e"/><g stroke-miterlimit="10"><path d="M521.2 714.25v17.6" fill="#f20606" stroke="#08090a"/><path d="M849.9.5h577.73v458.86H849.9z" fill="#0f0909" stroke="#151700"/></g><image width="1300" height="1130" transform="matrix(.43 0 0 .39 861.26 11.17)" xlink:href="../../Sk%C3%A6rmbillede%202019-12-05%20kl.%2023.24.05.png"/></svg>