<svg xmlns="http://www.w3.org/2000/svg" xmlns:xlink="http://www.w3.org/1999/xlink" viewBox="0 0 1381.23 945.13"><path d="M0 45.25h976.58v899.88H0z"/><image width="684" height="634" transform="matrix(1.4 0 0 1.38 11.63 56.51)" xlink:href="../../Sk%C3%A6rmbillede%202019-12-05%20kl.%2022.54.37.png"/><path d="M828.67 428.87l24.2 30.77-212.74 152.5-163.22 127.92 144.87-144.6L804.45 398.1l24.22 30.76z"/><path d="M459.08 693.7c0-9 8-16.28 17.84-16.28s17.84 7.3 17.84 16.28-8 16.3-17.84 16.3-17.84-7.3-17.84-16.3" fill="#e50e2e"/><g stroke-miterlimit="10"><path d="M476.92 710.07v30" fill="#f20606" stroke="#08090a" stroke-width="3"/><path d="M803 .5h577.73v458.86H803z" fill="#0f0909" stroke="#151700"/></g><image width="1300" height="1130" transform="matrix(.43 0 0 .39 814.35 11.17)" xlink:href="../../Sk%C3%A6rmbillede%202019-12-05%20kl.%2023.24.05.png"/><text font-size="60" font-family="MyriadPro-Regular,Myriad Pro"><tspan letter-spacing="-0.01em" x="827.83" y="72.06">A</tspan><tspan x="864.19" y="72.06">ssens</tspan><tspan letter-spacing="0em" x="20.28" y="136.59">D</tspan><tspan x="60.48" y="136.59">enma</tspan><tspan x="202.8" letter-spacing="0em" y="136.59">r</tspan><tspan x="222.66" y="136.59">k</tspan></text></svg>